<svg width="40" height="40" viewBox="0 0 40 40" fill="none" xmlns="http://www.w3.org/2000/svg">
<circle cx="20" cy="20" r="20" fill="#CFFFE1"/>
<path d="M19.7331 32.9999C19.5783 33.0012 19.4235 32.9644 19.2851 32.8921L14.7837 30.5631C13.5052 29.9 12.506 29.1572 11.7258 28.2918C10.0181 26.3992 9.06924 23.9698 9.05288 21.4496L9.00003 13.155C8.995 12.1976 9.61162 11.3384 10.5353 11.016L18.8006 8.13304C19.2914 7.95898 19.8388 7.9553 20.3384 8.12446L28.6352 10.9081C29.5639 11.2183 30.1919 12.0714 30.1969 13.0275L30.2498 21.3283C30.2661 23.8448 29.3487 26.2853 27.6687 28.1974C26.8961 29.0751 25.9057 29.8289 24.641 30.5031L20.1811 32.8872C20.0414 32.9607 19.8879 32.9987 19.7331 32.9999Z" fill="#0FE75F"/>
<mask id="mask0" mask-type="alpha" maskUnits="userSpaceOnUse" x="9" y="8" width="22" height="25">
<path fill-rule="evenodd" clip-rule="evenodd" d="M19.2851 32.8921C19.4235 32.9644 19.5783 33.0012 19.7331 32.9999C19.8879 32.9987 20.0414 32.9607 20.1811 32.8872L24.641 30.5031C25.9057 29.8289 26.8961 29.0751 27.6687 28.1974C29.3487 26.2853 30.2661 23.8448 30.2498 21.3283L30.1969 13.0275C30.1919 12.0714 29.5639 11.2183 28.6352 10.9081L20.3384 8.12446C19.8388 7.9553 19.2914 7.95898 18.8006 8.13304L10.5353 11.016C9.61162 11.3384 8.995 12.1976 9.00003 13.155L9.05288 21.4496C9.06924 23.9698 10.0181 26.3992 11.7258 28.2918C12.506 29.1572 13.5052 29.9 14.7837 30.5631L19.2851 32.8921ZM18.1044 23.1362C18.2906 23.3151 18.5323 23.4034 18.7739 23.4009C19.0155 23.3997 19.2559 23.309 19.4396 23.1276L24.3135 18.3226C24.6797 17.961 24.6759 17.38 24.3059 17.0233C23.9347 16.6666 23.3369 16.6691 22.9707 17.0307L18.76 21.1811L17.036 19.5239C16.6648 19.1672 16.0683 19.1708 15.7008 19.5324C15.3346 19.894 15.3384 20.4751 15.7096 20.8317L18.1044 23.1362Z" fill="black"/>
</mask>
<g mask="url(#mask0)">
<rect x="20" y="7" width="14" height="29" fill="#0FBF4C"/>
</g>
<path d="M19.3452 22.6433C19.1036 22.6458 18.862 22.5575 18.6757 22.3785L16.281 20.0741C15.9097 19.7174 15.906 19.1364 16.2722 18.7748C16.6396 18.4132 17.2361 18.4095 17.6073 18.7662L19.3314 20.4235L23.5421 16.273C23.9083 15.9115 24.506 15.909 24.8772 16.2657C25.2472 16.6224 25.251 17.2034 24.8848 17.565L20.0109 22.37C19.8272 22.5514 19.5868 22.6421 19.3452 22.6433Z" fill="white"/>
</svg>
