<svg width="32" height="32" viewBox="0 0 32 32" fill="none" xmlns="http://www.w3.org/2000/svg">
<path d="M16 27.4693C22.3343 27.4693 27.4693 22.3343 27.4693 16C27.4693 9.66572 22.3343 4.53076 16 4.53076C9.66572 4.53076 4.53076 9.66572 4.53076 16C4.53076 22.3343 9.66572 27.4693 16 27.4693Z" fill="#6799FF"/>
<path d="M16.0001 25.4483C21.2183 25.4483 25.4486 21.218 25.4486 15.9998C25.4486 10.7815 21.2183 6.55127 16.0001 6.55127C10.7818 6.55127 6.55157 10.7815 6.55157 15.9998C6.55157 21.218 10.7818 25.4483 16.0001 25.4483Z" fill="#256DFE"/>
<path d="M14.881 20.3618C14.7313 20.3619 14.583 20.3318 14.4451 20.2734C14.3071 20.2151 14.1823 20.1296 14.078 20.0221L10.441 16.2751C10.337 16.17 10.2549 16.0453 10.1993 15.9083C10.1438 15.7712 10.1159 15.6245 10.1174 15.4767C10.1189 15.3288 10.1497 15.1827 10.208 15.0468C10.2663 14.9109 10.351 14.7879 10.4571 14.6849C10.5632 14.5819 10.6887 14.501 10.8263 14.4468C10.9639 14.3926 11.1108 14.3662 11.2587 14.3692C11.4065 14.3721 11.5523 14.4043 11.6876 14.464C11.823 14.5236 11.9451 14.6095 12.047 14.7166L14.8528 17.6071L19.9278 12.0071C20.1283 11.7921 20.4054 11.6647 20.6991 11.6524C20.9928 11.64 21.2796 11.7437 21.4975 11.941C21.7154 12.1384 21.8469 12.4135 21.8636 12.707C21.8803 13.0005 21.7809 13.2888 21.5868 13.5096L15.7118 19.9951C15.6088 20.1085 15.4836 20.1995 15.3439 20.2626C15.2043 20.3257 15.0532 20.3595 14.9 20.3618H14.881Z" fill="white"/>
</svg>
