<svg width="40" height="40" viewBox="0 0 40 40" fill="none" xmlns="http://www.w3.org/2000/svg">
<circle cx="20" cy="20" r="20" fill="#FFE4E4"/>
<path d="M10.2036 22.1562H8.70327C8.31455 22.1562 8 22.4707 8 22.8594V31.2969C8 31.6855 8.31455 32 8.70327 32H10.2036C11.367 32 12.3134 31.0538 12.3134 29.8906V24.2656C12.3134 23.1025 11.367 22.1562 10.2036 22.1562Z" fill="#FF4D4D"/>
<path d="M31.7939 23.5202C31.7096 23.3796 31.5971 23.2671 31.4705 23.1686C30.9526 22.7157 30.0802 22.7585 29.5717 23.3093L26.3788 26.9937L26.2803 27.1061C25.8866 27.5421 25.3239 27.7812 24.7332 27.7812H19.2758C18.8819 27.7812 18.5725 27.4718 18.5725 27.0781C18.5725 26.6843 18.8819 26.3749 19.2758 26.3749H23.5658C24.3394 26.3749 24.9723 25.7421 24.9723 24.9687V24.9546C24.9582 24.1812 24.3394 23.5624 23.5658 23.5624H21.0199C20.5981 23.5624 20.1462 23.4076 19.7822 23.0983C18.0662 21.5936 15.5625 21.4952 13.72 22.7749V31.4233C15.1124 31.8031 16.5471 31.9999 17.9958 31.9999H24.269C25.8162 31.9999 27.279 31.2686 28.2074 30.0311L31.5831 25.5311C32.0755 24.8848 32.1127 23.9984 31.7939 23.5202Z" fill="#FFC700"/>
<path d="M26.8575 9.35914C26.0775 8.48267 24.9962 8 23.8128 8C22.492 8 21.347 8.62442 20.5018 9.80572C20.4384 9.89427 20.3791 9.98286 20.3235 10.0705C20.268 9.98281 20.2087 9.89427 20.1453 9.80572C19.3 8.62442 18.155 8 16.8342 8C15.6508 8 14.5695 8.48267 13.7895 9.35909C13.0493 10.1908 12.6416 11.3028 12.6416 12.4901C12.6416 13.7803 13.1424 14.9709 14.2175 16.237C15.1556 17.3416 16.5011 18.477 18.0591 19.7918C18.6348 20.2776 19.2302 20.78 19.8629 21.3282C19.9951 21.4428 20.1593 21.5 20.3235 21.5C20.4877 21.5 20.6519 21.4428 20.7841 21.3282C21.4167 20.7801 22.012 20.2778 22.5877 19.792C23.5883 18.9476 24.4524 18.2184 25.2023 17.5111C26.6582 16.1377 28.0054 14.5789 28.0054 12.4901C28.0054 11.3028 27.5978 10.1909 26.8575 9.35914Z" fill="#FF4D4D"/>
<mask id="mask0" mask-type="alpha" maskUnits="userSpaceOnUse" x="12" y="8" width="17" height="14">
<path d="M26.8575 9.35914C26.0775 8.48267 24.9962 8 23.8128 8C22.492 8 21.347 8.62442 20.5018 9.80572C20.4384 9.89427 20.3791 9.98286 20.3235 10.0705C20.268 9.98281 20.2087 9.89427 20.1453 9.80572C19.3 8.62442 18.155 8 16.8342 8C15.6508 8 14.5695 8.48267 13.7895 9.35909C13.0493 10.1908 12.6416 11.3028 12.6416 12.4901C12.6416 13.7803 13.1424 14.9709 14.2175 16.237C15.1556 17.3416 16.5011 18.477 18.0591 19.7918C18.6348 20.2776 19.2302 20.78 19.8629 21.3282C19.9951 21.4428 20.1593 21.5 20.3235 21.5C20.4877 21.5 20.6519 21.4428 20.7841 21.3282C21.4167 20.7801 22.012 20.2778 22.5877 19.792C23.5883 18.9476 24.4524 18.2184 25.2023 17.5111C26.6582 16.1377 28.0054 14.5789 28.0054 12.4901C28.0054 11.3028 27.5978 10.1909 26.8575 9.35914Z" fill="black"/>
</mask>
<g mask="url(#mask0)">
<rect x="20.0025" y="7.20007" width="9.60199" height="15.2" fill="#FF3838"/>
</g>
</svg>
