<svg width="32" height="32" viewBox="0 0 32 32" fill="none" xmlns="http://www.w3.org/2000/svg">
<circle cx="16" cy="16" r="16" fill="white"/>
<path d="M13.1348 24.7733V21.7156C13.1348 20.9351 13.7722 20.3023 14.5584 20.3023H17.4326C17.8102 20.3023 18.1723 20.4512 18.4393 20.7163C18.7063 20.9813 18.8563 21.3408 18.8563 21.7156V24.7733C18.8539 25.0978 18.9821 25.4099 19.2124 25.6402C19.4427 25.8705 19.7561 26 20.0829 26H22.0438C22.9596 26.0023 23.8388 25.6428 24.4872 25.0008C25.1356 24.3588 25.5 23.487 25.5 22.5778V13.8669C25.5 13.1325 25.1721 12.4358 24.6046 11.9647L17.934 6.67587C16.7737 5.74856 15.1111 5.7785 13.9854 6.74698L7.46701 11.9647C6.87274 12.422 6.51755 13.1206 6.5 13.8669V22.5689C6.5 24.4639 8.04738 26 9.95617 26H11.8723C12.5512 26 13.103 25.4562 13.1079 24.7822L13.1348 24.7733Z" fill="#256DFE"/>
</svg>
