<svg width="40" height="40" viewBox="0 0 40 40" fill="none" xmlns="http://www.w3.org/2000/svg">
<circle cx="20" cy="20" r="20" fill="#FFF9E3"/>
<path d="M20 8C16.9487 8 14.0788 9.16892 11.9202 11.2905C11.6226 11.5827 11.6226 12.0568 11.9202 12.3483C12.2177 12.6405 12.6998 12.6405 12.9973 12.3483C14.8688 10.5088 17.3556 9.49619 20 9.49619C22.6445 9.49619 25.1312 10.5088 27.0028 12.3483C27.3003 12.6405 27.7823 12.6406 28.0799 12.3483C28.3774 12.0568 28.3774 11.5827 28.0799 11.2905C25.9212 9.16892 23.0514 8 20 8Z" fill="#F9CA24"/>
<path d="M7.51261 11.053C7.12576 11.2159 6.9465 11.6557 7.1124 12.0348L10.5749 19.9695H12.2318L8.51234 11.446C8.34649 11.0647 7.89418 10.8879 7.51261 11.053Z" fill="#F9CA24"/>
<path d="M18.3872 17.6354C18.0897 17.9276 18.0897 18.401 18.3872 18.6933C18.6847 18.9855 19.1668 18.9855 19.4643 18.6933C19.5484 18.6114 19.7292 18.4734 19.9999 18.4734C20.2707 18.4734 20.4515 18.6115 20.5355 18.6933C20.833 18.9855 21.3151 18.9855 21.6126 18.6933C21.9102 18.401 21.9102 17.9276 21.6126 17.6354C21.3627 17.3892 20.8204 16.9772 19.9999 16.9772C19.1794 16.9772 18.6372 17.3892 18.3872 17.6354Z" fill="#F9CA24"/>
<path d="M25.9242 14.4633C26.2217 14.1718 26.2217 13.6977 25.9242 13.4055C24.3413 11.8494 22.2376 10.9924 20.0001 10.9924C17.7625 10.9924 15.6589 11.8494 14.0759 13.4055C13.7784 13.6977 13.7784 14.1718 14.0759 14.4633C14.3735 14.7555 14.8555 14.7555 15.153 14.4633C16.4488 13.19 18.1694 12.4886 20.0001 12.4886C21.8307 12.4886 23.5513 13.19 24.8471 14.4633C25.1446 14.7555 25.6267 14.7555 25.9242 14.4633Z" fill="#F9CA24"/>
<path d="M23.7685 16.5782C24.0661 16.2867 24.0661 15.8126 23.7685 15.5204C21.7542 13.5406 18.2461 13.5406 16.2317 15.5204C15.9342 15.8126 15.9342 16.2867 16.2317 16.5782C16.5292 16.8704 17.0113 16.8704 17.3088 16.5782C18.7489 15.1624 21.2513 15.1624 22.6914 16.5782C22.9889 16.8704 23.471 16.8704 23.7685 16.5782Z" fill="#F9CA24"/>
<path d="M30.7148 21.4657H9.28516C8.02507 21.4657 7 22.4724 7 23.71V28.1986C7 29.4361 8.02507 30.4428 9.28516 30.4428H10.0469V31.2408C10.0469 31.6543 10.3876 31.9889 10.8086 31.9889C11.2296 31.9889 11.5703 31.6543 11.5703 31.2408V30.4428H28.4297V31.2408C28.4297 31.6543 28.7704 31.9889 29.1914 31.9889C29.6124 31.9889 29.9531 31.6543 29.9531 31.2408V30.4428H30.7148C31.9749 30.4428 33 29.4361 33 28.1986V23.71C33 22.4724 31.9749 21.4657 30.7148 21.4657ZM23.8594 26.7024C23.8594 27.1159 23.5187 27.4505 23.0977 27.4505C22.6766 27.4505 22.3359 27.1159 22.3359 26.7024V25.2062C22.3359 24.7927 22.6766 24.4581 23.0977 24.4581C23.5187 24.4581 23.8594 24.7927 23.8594 25.2062V26.7024ZM26.9062 26.7024C26.9062 27.1159 26.5656 27.4505 26.1445 27.4505C25.7235 27.4505 25.3828 27.1159 25.3828 26.7024V25.2062C25.3828 24.7927 25.7235 24.4581 26.1445 24.4581C26.5656 24.4581 26.9062 24.7927 26.9062 25.2062V26.7024ZM29.9531 26.7024C29.9531 27.1159 29.6124 27.4505 29.1914 27.4505C28.7704 27.4505 28.4297 27.1159 28.4297 26.7024V25.2062C28.4297 24.7927 28.7704 24.4581 29.1914 24.4581C29.6124 24.4581 29.9531 24.7927 29.9531 25.2062V26.7024Z" fill="#FFE380"/>
<mask id="mask0" mask-type="alpha" maskUnits="userSpaceOnUse" x="7" y="21" width="26" height="11">
<path d="M30.7148 21.4768H9.28516C8.02507 21.4768 7 22.4835 7 23.7211V28.2097C7 29.4472 8.02507 30.4539 9.28516 30.4539H10.0469V31.2519C10.0469 31.6654 10.3876 32 10.8086 32C11.2296 32 11.5703 31.6654 11.5703 31.2519V30.4539H28.4297V31.2519C28.4297 31.6654 28.7704 32 29.1914 32C29.6124 32 29.9531 31.6654 29.9531 31.2519V30.4539H30.7148C31.9749 30.4539 33 29.4472 33 28.2097V23.7211C33 22.4835 31.9749 21.4768 30.7148 21.4768ZM23.8594 26.7135C23.8594 27.127 23.5187 27.4616 23.0977 27.4616C22.6766 27.4616 22.3359 27.127 22.3359 26.7135V25.2173C22.3359 24.8038 22.6766 24.4692 23.0977 24.4692C23.5187 24.4692 23.8594 24.8038 23.8594 25.2173V26.7135ZM26.9062 26.7135C26.9062 27.127 26.5656 27.4616 26.1445 27.4616C25.7235 27.4616 25.3828 27.127 25.3828 26.7135V25.2173C25.3828 24.8038 25.7235 24.4692 26.1445 24.4692C26.5656 24.4692 26.9062 24.8038 26.9062 25.2173V26.7135ZM29.9531 26.7135C29.9531 27.127 29.6124 27.4616 29.1914 27.4616C28.7704 27.4616 28.4297 27.127 28.4297 26.7135V25.2173C28.4297 24.8038 28.7704 24.4692 29.1914 24.4692C29.6124 24.4692 29.9531 24.8038 29.9531 25.2173V26.7135Z" fill="black"/>
</mask>
<g mask="url(#mask0)">
<path d="M13.5001 28.5699C10.467 27.3433 9.16674 23.3683 9.88896 21.1222L5.91675 21.4768V32.1164L33.3612 32.4711V24.3141C31.5556 30.6978 19.639 31.0525 13.5001 28.5699Z" fill="#F9CA24"/>
</g>
<path d="M29.4249 19.9695L32.8874 12.0349C33.0533 11.6557 32.874 11.2159 32.4872 11.053C32.1027 10.8893 31.6533 11.0654 31.4874 11.446L27.7681 19.9695H29.4249Z" fill="#F9CA24"/>
</svg>
