<svg width="48" height="48" viewBox="0 0 48 48" fill="none" xmlns="http://www.w3.org/2000/svg">
<circle cx="24" cy="24" r="24" fill="#256DFE"/>
<path d="M35.9958 20H12V21C12 21.5304 12.2107 22.0391 12.5858 22.4142C12.9609 22.7893 13.4696 23 14 23H17C17.5304 23 18.0391 22.7893 18.4142 22.4142C18.7893 22.0391 19 21.5304 19 21C19 21.5304 19.2107 22.0391 19.5858 22.4142C19.9609 22.7893 20.4696 23 21 23H27C27.5304 23 28.0391 22.7893 28.4142 22.4142C28.7893 22.0391 29 21.5304 29 21C29 21.5304 29.2107 22.0391 29.5858 22.4142C29.9609 22.7893 30.4696 23 31 23H34C34.5304 23 35.0391 22.7893 35.4142 22.4142C35.7893 22.0391 36 21.5304 36 21V20H35.9958Z" fill="white"/>
<path d="M35.7542 19L33.9615 12.725C33.9017 12.5161 33.7756 12.3324 33.6021 12.2015C33.4286 12.0707 33.2172 12 33 12H28.4197L29.8197 19H35.7542Z" fill="white"/>
<path d="M19.5802 12H15C14.7827 12 14.5713 12.0707 14.3979 12.2015C14.2244 12.3324 14.0982 12.5161 14.0385 12.725L12.2457 19H18.1802L19.5802 12Z" fill="white"/>
<path d="M26.3802 12H21.6197L20.2197 19H27.7802L26.3802 12Z" fill="white"/>
<path d="M31 24.0001C30.2616 24.0007 29.5491 23.728 29 23.2344C28.4508 23.728 27.7383 24.0007 27 24.0001H21C20.2616 24.0007 19.5491 23.728 19 23.2344C18.4508 23.728 17.7383 24.0007 17 24.0001H14C13.6591 23.9994 13.3208 23.9402 13 23.8251V35.0001C13 35.2653 13.1053 35.5197 13.2929 35.7072C13.4804 35.8948 13.7348 36.0001 14 36.0001H16V27.0001C16 26.7349 16.1053 26.4806 16.2929 26.293C16.4804 26.1055 16.7348 26.0001 17 26.0001H22C22.2652 26.0001 22.5195 26.1055 22.7071 26.293C22.8946 26.4806 23 26.7349 23 27.0001V36.0001H34C34.2652 36.0001 34.5195 35.8948 34.7071 35.7072C34.8946 35.5197 35 35.2653 35 35.0001V23.8251C34.6791 23.9402 34.3409 23.9994 34 24.0001H31ZM32 30.0001C32 30.2653 31.8946 30.5197 31.7071 30.7072C31.5195 30.8948 31.2652 31.0001 31 31.0001H26C25.7348 31.0001 25.4804 30.8948 25.2929 30.7072C25.1053 30.5197 25 30.2653 25 30.0001V27.0001C25 26.7349 25.1053 26.4806 25.2929 26.293C25.4804 26.1055 25.7348 26.0001 26 26.0001H31C31.2652 26.0001 31.5195 26.1055 31.7071 26.293C31.8946 26.4806 32 26.7349 32 27.0001V30.0001Z" fill="white"/>
</svg>
