<svg width="64" height="64" viewBox="0 0 64 64" fill="none" xmlns="http://www.w3.org/2000/svg">
<circle cx="32" cy="32" r="32" fill="#6195FF" fill-opacity="0.8"/>
<path d="M47.9943 26.667H16V28.0003C16 28.7076 16.281 29.3858 16.781 29.8859C17.2811 30.386 17.9594 30.667 18.6667 30.667H22.6667C23.3739 30.667 24.0522 30.386 24.5523 29.8859C25.0524 29.3858 25.3333 28.7076 25.3333 28.0003C25.3333 28.7076 25.6143 29.3858 26.1144 29.8859C26.6145 30.386 27.2928 30.667 28 30.667H36C36.7072 30.667 37.3855 30.386 37.8856 29.8859C38.3857 29.3858 38.6667 28.7076 38.6667 28.0003C38.6667 28.7076 38.9476 29.3858 39.4477 29.8859C39.9478 30.386 40.6261 30.667 41.3333 30.667H45.3333C46.0406 30.667 46.7189 30.386 47.219 29.8859C47.719 29.3858 48 28.7076 48 28.0003V26.667H47.9943Z" fill="white"/>
<path d="M47.6722 25.3333L45.2819 16.9667C45.2022 16.6881 45.034 16.4431 44.8027 16.2687C44.5714 16.0943 44.2896 16 43.9999 16H37.8929L39.7596 25.3333H47.6722Z" fill="white"/>
<path d="M26.107 16H20C19.7103 16 19.4285 16.0943 19.1972 16.2687C18.9659 16.4431 18.7977 16.6881 18.718 16.9667L16.3277 25.3333H24.2403L26.107 16Z" fill="white"/>
<path d="M35.1736 16H28.8263L26.9596 25.3333H37.0403L35.1736 16Z" fill="white"/>
<path d="M41.3333 32C40.3488 32.0008 39.3988 31.6371 38.6666 30.979C37.9344 31.6371 36.9845 32.0008 36 32H27.9999C27.0154 32.0008 26.0655 31.6371 25.3333 30.979C24.6011 31.6371 23.6511 32.0008 22.6666 32H18.6666C18.2121 31.999 17.7611 31.9201 17.3333 31.7667V46.6667C17.3333 47.0203 17.4738 47.3594 17.7238 47.6095C17.9739 47.8595 18.313 48 18.6666 48H21.3333V36C21.3333 35.6464 21.4738 35.3072 21.7238 35.0572C21.9739 34.8071 22.313 34.6667 22.6666 34.6667H29.3333C29.6869 34.6667 30.026 34.8071 30.2761 35.0572C30.5261 35.3072 30.6666 35.6464 30.6666 36V48H45.3333C45.6869 48 46.026 47.8595 46.2761 47.6095C46.5261 47.3594 46.6666 47.0203 46.6666 46.6667V31.7667C46.2388 31.9201 45.7878 31.999 45.3333 32H41.3333ZM42.6666 40C42.6666 40.3536 42.5261 40.6928 42.2761 40.9428C42.026 41.1929 41.6869 41.3333 41.3333 41.3333H34.6666C34.313 41.3333 33.9739 41.1929 33.7238 40.9428C33.4738 40.6928 33.3333 40.3536 33.3333 40V36C33.3333 35.6464 33.4738 35.3072 33.7238 35.0572C33.9739 34.8071 34.313 34.6667 34.6666 34.6667H41.3333C41.6869 34.6667 42.026 34.8071 42.2761 35.0572C42.5261 35.3072 42.6666 35.6464 42.6666 36V40Z" fill="white"/>
</svg>
