<svg width="48" height="48" viewBox="0 0 48 48" fill="none" xmlns="http://www.w3.org/2000/svg">
<circle cx="24" cy="24" r="24" fill="#F0F5FF"/>
<path d="M27.018 13.5432L15.899 16.5225L20.368 33.2009L31.4869 30.2216L27.018 13.5432Z" fill="#256DFE"/>
<path d="M25.683 11.1202L15.8005 13.7683C14.8554 14.0215 14.2972 14.9925 14.5505 15.9376L19.9271 36.0036C20.1796 36.9458 21.1487 37.5084 22.0938 37.2552L31.9763 34.6071C32.9199 34.3543 33.481 33.3825 33.2284 32.4396L27.8517 12.3736C27.5977 11.4287 26.6266 10.8674 25.683 11.1202ZM31.2104 30.0351L20.4725 32.9123L16.1471 16.7699L26.8851 13.8927L31.2104 30.0351ZM23.4983 13.5671L18.9166 14.7948L18.7827 14.2952L23.3652 13.0673L23.4983 13.5671ZM25.3978 12.8134C25.4626 13.0551 25.3178 13.3036 25.0769 13.3682C24.8353 13.4329 24.5862 13.2891 24.5216 13.0482C24.4571 12.8073 24.6009 12.5582 24.8425 12.4935C25.084 12.428 25.3331 12.5718 25.3978 12.8134Z" fill="#5836EE"/>
<path d="M31.6172 17.8123L33.9466 26.5056" stroke="#256DFE" stroke-width="1.5" stroke-linecap="round"/>
<path d="M14.2306 22.4709L16.5599 31.1643" stroke="#256DFE" stroke-width="1.5" stroke-linecap="round"/>
<circle cx="23.523" cy="33.8713" r="1.15112" fill="white"/>
</svg>
