<svg width="32" height="32" viewBox="0 0 32 32" fill="none" xmlns="http://www.w3.org/2000/svg">
<path d="M23 3.5H27V8.5H23V3.5Z" fill="#DD1C4B"/>
<path d="M26 3.5H27V8.5H26V3.5Z" fill="#AF1E4B"/>
<path d="M23 8.5H27V13.5H23V8.5Z" fill="#FFD199"/>
<path d="M26 8.5H27V13.5H26V8.5Z" fill="#FEAC4F"/>
<path d="M23 13.5H27V19H23V13.5Z" fill="#2993CE"/>
<path d="M26 13.5H27V19H26V13.5Z" fill="#045F9C"/>
<path d="M6 29.0347C6 29.2272 6.0379 29.4177 6.11154 29.5955C6.18517 29.7732 6.2931 29.9348 6.42916 30.0708C6.56522 30.2069 6.72675 30.3148 6.90452 30.3885C7.0823 30.4621 7.27283 30.5 7.46525 30.5H25.5268C25.7202 30.5 25.9118 30.4619 26.0905 30.3879C26.2693 30.3138 26.4317 30.2053 26.5685 30.0685C26.7053 29.9317 26.8138 29.7693 26.8879 29.5905C26.9619 29.4118 27 29.2202 27 29.0268V18.9387C27 18.7498 26.9628 18.5627 26.8905 18.3882C26.8182 18.2136 26.7122 18.055 26.5786 17.9214C26.445 17.7878 26.2864 17.6818 26.1118 17.6095C25.9373 17.5372 25.7502 17.5 25.5613 17.5H25.4387C25.2498 17.5 25.0627 17.4628 24.8882 17.3905C24.7136 17.3182 24.555 17.2122 24.4214 17.0786C24.2878 16.945 24.1818 16.7864 24.1095 16.6118C24.0372 16.4373 24 16.2502 24 16.0613V2.93875C24 2.74981 23.9628 2.56272 23.8905 2.38815C23.8182 2.21359 23.7122 2.05498 23.5786 1.92138C23.445 1.78778 23.2864 1.6818 23.1118 1.6095C22.9373 1.5372 22.7502 1.49999 22.5613 1.5H7.43875C7.24981 1.49999 7.06272 1.5372 6.88815 1.6095C6.71359 1.6818 6.55498 1.78778 6.42138 1.92138C6.28778 2.05498 6.1818 2.21359 6.1095 2.38815C6.0372 2.56272 5.99999 2.74981 6 2.93875V29.0347Z" fill="#FEAC4F"/>
<path d="M26 17.5684V26.0267C26 26.2202 25.9619 26.4118 25.8879 26.5905C25.8138 26.7693 25.7053 26.9317 25.5685 27.0685C25.4317 27.2053 25.2693 27.3138 25.0905 27.3879C24.9118 27.4619 24.7202 27.5 24.5268 27.5H6.46525C6.30709 27.5 6.14996 27.4744 6 27.4241V29.0347C6 29.2272 6.0379 29.4177 6.11154 29.5955C6.18517 29.7732 6.2931 29.9348 6.42916 30.0708C6.56522 30.2069 6.72675 30.3148 6.90452 30.3884C7.0823 30.4621 7.27283 30.5 7.46525 30.5H25.5268C25.7202 30.5 25.9118 30.4619 26.0905 30.3879C26.2693 30.3138 26.4317 30.2053 26.5685 30.0685C26.7053 29.9317 26.8138 29.7693 26.8879 29.5905C26.9619 29.4118 27 29.2202 27 29.0267V18.9387C27 18.6338 26.9031 18.3368 26.7234 18.0905C26.5437 17.8443 26.2903 17.6614 26 17.5684Z" fill="#D68029"/>
<path d="M23 14.6296C23 14.9345 23.0969 15.2315 23.2766 15.4778C23.4563 15.7241 23.7096 15.9069 24 16V2.93873C24 2.63384 23.9031 2.33683 23.7234 2.09054C23.5437 1.84425 23.2904 1.6614 23 1.56836V14.6296Z" fill="#D68029"/>
<path d="M17.5 21C20.5376 21 23 18.5376 23 15.5C23 12.4624 20.5376 10 17.5 10C14.4624 10 12 12.4624 12 15.5C12 18.5376 14.4624 21 17.5 21Z" fill="#D68029"/>
<path d="M16.5 20C19.5376 20 22 17.5376 22 14.5C22 11.4624 19.5376 9 16.5 9C13.4624 9 11 11.4624 11 14.5C11 17.5376 13.4624 20 16.5 20Z" fill="#045F9C"/>
<path d="M15.0795 11.7336L15.324 11.9781C15.4288 12.0829 15.5023 12.2148 15.5364 12.3591C15.5704 12.5033 15.5637 12.6542 15.5168 12.7948L15.173 13.8269L17.173 15.8269L18.2052 15.4832C18.3458 15.4363 18.4967 15.4295 18.6409 15.4636C18.7851 15.4976 18.9171 15.5712 19.0219 15.676L19.2664 15.9205C19.3848 16.0389 19.463 16.1916 19.4898 16.3569C19.5166 16.5223 19.4908 16.6919 19.4159 16.8417C19.2593 17.1544 18.9934 17.3988 18.6685 17.5285L18.5027 17.5949C17.9595 17.8121 17.3645 17.8652 16.7915 17.7476C16.2184 17.63 15.6925 17.3468 15.2789 16.9332L14.0664 15.7207C13.6527 15.307 13.3695 14.7811 13.2519 14.208C13.1343 13.635 13.1874 13.04 13.4047 12.4969L13.471 12.331C13.6009 12.0063 13.8454 11.7406 14.1582 11.5842C14.308 11.5092 14.4776 11.4834 14.6429 11.5102C14.8083 11.537 14.961 11.6152 15.0795 11.7336Z" fill="#96D6E4"/>
<path d="M25.5534 28.5H6V29.0348C6 29.2272 6.0379 29.4177 6.11154 29.5955C6.18517 29.7733 6.2931 29.9348 6.42916 30.0709C6.56522 30.2069 6.72675 30.3149 6.90452 30.3885C7.0823 30.4621 7.27283 30.5 7.46525 30.5H25.5268C25.7202 30.5 25.9118 30.4619 26.0905 30.3879C26.2693 30.3139 26.4317 30.2053 26.5685 30.0685C26.7053 29.9317 26.8138 29.7693 26.8879 29.5906C26.9619 29.4118 27 29.2203 27 29.0268V27.0535C27 27.4371 26.8476 27.805 26.5763 28.0763C26.305 28.3476 25.9371 28.5 25.5534 28.5Z" fill="#F6E597"/>
<path d="M25.5532 28.5H25.4998V29.0268C25.4998 29.2203 25.4617 29.4118 25.3877 29.5906C25.3136 29.7693 25.2051 29.9317 25.0683 30.0685C24.9315 30.2053 24.7691 30.3139 24.5903 30.3879C24.4116 30.4619 24.22 30.5 24.0266 30.5H25.5265C25.72 30.5 25.9116 30.4619 26.0903 30.3879C26.2691 30.3139 26.4315 30.2053 26.5683 30.0685C26.7051 29.9317 26.8136 29.7693 26.8877 29.5906C26.9617 29.4118 26.9998 29.2203 26.9998 29.0268V27.0535C26.9998 27.4371 26.8474 27.805 26.5761 28.0763C26.3048 28.3476 25.9369 28.5 25.5532 28.5Z" fill="#EFD66A"/>
<path d="M9 8C9.26522 8 9.51957 7.89464 9.70711 7.70711C9.89464 7.51957 10 7.26522 10 7C10 6.73478 9.89464 6.48043 9.70711 6.29289C9.51957 6.10536 9.26522 6 9 6H6V8H9Z" fill="#D68029"/>
<path d="M9 14C9.26522 14 9.51957 13.8946 9.70711 13.7071C9.89464 13.5196 10 13.2652 10 13C10 12.7348 9.89464 12.4804 9.70711 12.2929C9.51957 12.1054 9.26522 12 9 12H6V14H9Z" fill="#D68029"/>
<path d="M9 20C9.26522 20 9.51957 19.8946 9.70711 19.7071C9.89464 19.5196 10 19.2652 10 19C10 18.7348 9.89464 18.4804 9.70711 18.2929C9.51957 18.1054 9.26522 18 9 18H6V20H9Z" fill="#D68029"/>
<path d="M9 26C9.26522 26 9.51957 25.8946 9.70711 25.7071C9.89464 25.5196 10 25.2652 10 25C10 24.7348 9.89464 24.4804 9.70711 24.2929C9.51957 24.1054 9.26522 24 9 24H6V26H9Z" fill="#D68029"/>
<path d="M8.5 5H4.5C3.94772 5 3.5 5.44772 3.5 6C3.5 6.55228 3.94772 7 4.5 7H8.5C9.05228 7 9.5 6.55228 9.5 6C9.5 5.44772 9.05228 5 8.5 5Z" fill="#EFD66A"/>
<path d="M8.5 11H4.5C3.94772 11 3.5 11.4477 3.5 12C3.5 12.5523 3.94772 13 4.5 13H8.5C9.05228 13 9.5 12.5523 9.5 12C9.5 11.4477 9.05228 11 8.5 11Z" fill="#EFD66A"/>
<path d="M8.5 17H4.5C3.94772 17 3.5 17.4477 3.5 18C3.5 18.5523 3.94772 19 4.5 19H8.5C9.05228 19 9.5 18.5523 9.5 18C9.5 17.4477 9.05228 17 8.5 17Z" fill="#EFD66A"/>
<path d="M8.5 23H4.5C3.94772 23 3.5 23.4477 3.5 24C3.5 24.5523 3.94772 25 4.5 25H8.5C9.05228 25 9.5 24.5523 9.5 24C9.5 23.4477 9.05228 23 8.5 23Z" fill="#EFD66A"/>
</svg>
