<svg width="40" height="40" viewBox="0 0 40 40" fill="none" xmlns="http://www.w3.org/2000/svg">
<circle cx="20" cy="20" r="20" fill="#FFE9CA"/>
<path d="M27.9164 17.2416C27.8726 17.1643 27.8091 17.1 27.7323 17.0552C27.6555 17.0105 27.5683 16.9869 27.4794 16.9869H20.8993L22.0024 8.55791C22.0143 8.4451 21.9878 8.33159 21.9273 8.23566C21.8668 8.13972 21.7757 8.06694 21.6688 8.02904C21.5619 7.99114 21.4454 7.99031 21.3379 8.02671C21.2305 8.0631 21.1384 8.13458 21.0766 8.22966L13.0744 22.2491C13.0276 22.3252 13.002 22.4125 13.0001 22.5018C12.9983 22.5911 13.0203 22.6793 13.0639 22.7573C13.1074 22.8353 13.1711 22.9002 13.2481 22.9454C13.3252 22.9907 13.4129 23.0145 13.5022 23.0145H19.9841L19.1098 31.4562C19.1012 31.5686 19.1305 31.6807 19.1929 31.7745C19.2554 31.8684 19.3474 31.9387 19.4544 31.9743C19.5614 32.0098 19.6772 32.0085 19.7834 31.9706C19.8896 31.9328 19.9801 31.8605 20.0404 31.7652L27.9104 17.7473C27.956 17.671 27.9806 17.5841 27.9817 17.4952C27.9827 17.4064 27.9602 17.3189 27.9164 17.2416Z" fill="#FFAF40"/>
<mask id="mask0" mask-type="alpha" maskUnits="userSpaceOnUse" x="13" y="8" width="15" height="24">
<path d="M27.9164 17.2416C27.8726 17.1643 27.8091 17.1 27.7323 17.0552C27.6555 17.0105 27.5683 16.9869 27.4794 16.9869H20.8993L22.0024 8.55791C22.0143 8.4451 21.9878 8.33159 21.9273 8.23566C21.8668 8.13972 21.7757 8.06694 21.6688 8.02904C21.5619 7.99114 21.4454 7.99031 21.3379 8.02671C21.2305 8.0631 21.1384 8.13458 21.0766 8.22966L13.0744 22.2491C13.0276 22.3252 13.002 22.4125 13.0001 22.5018C12.9983 22.5911 13.0203 22.6793 13.0639 22.7573C13.1074 22.8353 13.1711 22.9002 13.2481 22.9454C13.3252 22.9907 13.4129 23.0145 13.5022 23.0145H19.9841L19.1098 31.4562C19.1012 31.5686 19.1305 31.6807 19.1929 31.7745C19.2554 31.8684 19.3474 31.9387 19.4544 31.9743C19.5614 32.0098 19.6772 32.0085 19.7834 31.9706C19.8896 31.9328 19.9801 31.8605 20.0404 31.7652L27.9104 17.7473C27.956 17.671 27.9806 17.5841 27.9817 17.4952C27.9827 17.4064 27.9602 17.3189 27.9164 17.2416Z" fill="black"/>
</mask>
<g mask="url(#mask0)">
<path d="M18.6257 19.2515L20.6349 7.59814H22.6441L21.8405 16.0368H29.4754L20.2331 32.9141H19.0276L24.6533 19.2515H18.6257Z" fill="#FF9F1A"/>
</g>
</svg>
