<svg width="40" height="40" viewBox="0 0 40 40" fill="none" xmlns="http://www.w3.org/2000/svg">
<circle cx="20" cy="20" r="20" fill="#ECE8FF"/>
<path d="M25.6624 10.6859H14.1512V27.9527H25.6624V10.6859Z" fill="#256DFE"/>
<path d="M25 8H14.7689C13.7904 8 13 8.7935 13 9.77195V30.5458C13 31.5212 13.7904 32.3154 14.7689 32.3154H25C25.9769 32.3154 26.7704 31.5219 26.7704 30.5458V9.77195C26.7697 8.7935 25.9769 8 25 8ZM25.4436 27.701H14.3269V10.9891H25.4436V27.701ZM22.2565 9.79804H17.5131V9.28081H22.2573L22.2565 9.79804ZM24.2863 9.56168C24.2863 9.81186 24.0822 10.0145 23.8328 10.0145C23.5826 10.0145 23.3792 9.81109 23.3792 9.56168C23.3792 9.31227 23.5826 9.10891 23.8328 9.10891C24.083 9.10814 24.2863 9.31151 24.2863 9.56168Z" fill="#5836EE"/>
<path d="M19.9068 22.9646V16.0579M19.9068 16.0579L22.209 17.9764M19.9068 16.0579L17.6046 17.9764" stroke="white" stroke-width="1.15112" stroke-linecap="round" stroke-linejoin="round"/>
<circle cx="19.5231" cy="29.8712" r="1.15112" fill="white"/>
</svg>
