<svg width="32" height="32" viewBox="0 0 32 32" fill="none" xmlns="http://www.w3.org/2000/svg">
<circle cx="16" cy="16" r="16" fill="white"/>
<path fill-rule="evenodd" clip-rule="evenodd" d="M12.4277 7C12.8477 7 13.1887 7.33438 13.1887 7.74722C13.1887 8.15907 12.8487 8.49345 12.4277 8.49345L10.7987 8.49444C9.4467 8.4964 8.3467 9.57604 8.3467 10.9028V12.762C8.3467 13.1739 8.0047 13.5092 7.5847 13.5092C7.1647 13.5092 6.8237 13.1739 6.8237 12.762V10.9028C6.8237 8.75331 8.6067 7.00294 10.7977 7.00098L12.4267 7H12.4277ZM19.6006 7.00029H21.1936C23.3906 7.00029 25.1766 8.75165 25.1766 10.906V12.7623C25.1766 13.1742 24.8366 13.5095 24.4156 13.5095C23.9956 13.5095 23.6546 13.1742 23.6546 12.7623V10.906C23.6546 9.57535 22.5506 8.49277 21.1936 8.49277H19.6006C19.1806 8.49277 18.8396 8.15936 18.8396 7.74751C18.8396 7.33468 19.1806 7.00029 19.6006 7.00029ZM18.7625 10.7427H13.2385C11.9745 10.7554 10.9585 11.7684 10.9695 13.0088V14.2542C10.9725 14.3993 11.0915 14.518 11.2395 14.5229H20.7595C20.9085 14.5189 21.0275 14.4003 21.0325 14.2542V13.0088C21.0335 12.4097 20.7975 11.8341 20.3715 11.4055C19.9485 10.9809 19.3675 10.7427 18.7625 10.7427ZM5.762 16.0412H26.239C26.659 16.0412 27 16.3756 27 16.7885C27 17.2003 26.659 17.5337 26.239 17.5337H25.177V21.0933C25.177 23.2486 23.39 25 21.194 25H19.601C19.18 25 18.839 24.6656 18.839 24.2528C18.839 23.8409 19.18 23.5065 19.601 23.5065H21.194C22.551 23.5065 23.655 22.4249 23.655 21.0933V17.5337H21.032V18.5251C21.042 19.7656 20.027 20.7795 18.762 20.7913H13.238C11.974 20.7795 10.959 19.7656 10.969 18.5251V17.5337H8.346V21.0972C8.346 22.424 9.447 23.5036 10.8 23.5056L12.428 23.5065C12.848 23.5065 13.189 23.8409 13.189 24.2528C13.188 24.6656 12.848 25 12.427 25L10.798 24.999C8.607 24.9971 6.823 23.2467 6.823 21.0972V17.5337H5.762C5.342 17.5337 5 17.2003 5 16.7885C5 16.3756 5.342 16.0412 5.762 16.0412Z" fill="#808E9B"/>
</svg>
