<svg width="97" height="97" viewBox="0 0 97 97" fill="none" xmlns="http://www.w3.org/2000/svg">
<g clip-path="url(#clip0)">
<path d="M86.3639 87.9138C71.5212 100.03 25.1756 100.03 10.6358 87.9138C-4.20692 75.7973 -2.69238 23.9993 10.6358 10.3683C23.964 -3.26274 73.0357 -3.26274 86.3639 10.3683C99.6921 23.9993 101.207 75.7975 86.3639 87.9138Z" fill="#8DC640"/>
<g opacity="0.2">
<path opacity="0.2" d="M48.803 66.7093C35.4748 77.3112 20.6321 82.7636 6.6982 83.0665C-3.6009 65.4976 -1.48042 22.7871 10.6361 10.3677C21.5409 -0.840021 55.77 -2.9605 75.4594 4.00645C80.3058 23.9987 70.3098 49.4432 48.803 66.7093Z" fill="white"/>
</g>
<path d="M41.5329 75.4937C39.4124 75.4937 37.2921 74.5849 36.0805 72.7675L19.1175 50.9578C16.6941 47.9288 17.3001 43.688 20.3291 41.2647C23.3582 38.8413 27.599 39.4473 30.0223 42.4763L41.5329 57.3191L66.9776 24.3017C69.4009 21.2726 73.6417 20.6667 76.6707 23.09C79.6998 25.5134 80.3057 29.7541 77.8824 32.7832L46.9853 72.7675C45.4708 74.2821 43.6534 75.4937 41.5329 75.4937Z" fill="white"/>
</g>
<defs>
<clipPath id="clip0">
<rect width="97" height="97" fill="white"/>
</clipPath>
</defs>
</svg>
