<svg width="24" height="24" viewBox="0 0 24 24" fill="none" xmlns="http://www.w3.org/2000/svg">
<mask id="path-1-inside-1" fill="white">
<path d="M16.4705 22.1297C16.6773 22.5984 16.4659 23.1498 15.9826 23.3199C13.6463 24.1419 11.1045 24.2232 8.70829 23.5397C6.0137 22.7711 3.67305 21.0837 2.09218 18.7702C0.511307 16.4566 -0.210105 13.6628 0.0530278 10.8731C0.316161 8.08343 1.54725 5.47378 3.53283 3.49665C5.51841 1.51951 8.13329 0.299565 10.9241 0.048331C13.7149 -0.202903 16.5056 0.530416 18.8124 2.12114C21.1191 3.71187 22.7965 6.05969 23.5536 8.75753C24.2269 11.1567 24.1347 13.6981 23.3028 16.0308C23.1307 16.5134 22.5784 16.7225 22.1105 16.5136V16.5136C21.6427 16.3048 21.4371 15.7571 21.6024 15.2722C22.2617 13.3374 22.3234 11.2407 21.7672 9.25888C21.1272 6.97817 19.7091 4.99336 17.759 3.64859C15.8089 2.30382 13.4497 1.68388 11.0904 1.89627C8.73115 2.10866 6.52058 3.13998 4.84201 4.81142C3.16343 6.48285 2.12269 8.689 1.90024 11.0474C1.6778 13.4057 2.28767 15.7676 3.62411 17.7234C4.96055 19.6792 6.93929 21.1057 9.21725 21.7555C11.1967 22.3201 13.2937 22.2673 15.2312 21.6162C15.7169 21.453 16.2636 21.661 16.4705 22.1297V22.1297Z"/>
</mask>
<path d="M16.4705 22.1297C16.6773 22.5984 16.4659 23.1498 15.9826 23.3199C13.6463 24.1419 11.1045 24.2232 8.70829 23.5397C6.0137 22.7711 3.67305 21.0837 2.09218 18.7702C0.511307 16.4566 -0.210105 13.6628 0.0530278 10.8731C0.316161 8.08343 1.54725 5.47378 3.53283 3.49665C5.51841 1.51951 8.13329 0.299565 10.9241 0.048331C13.7149 -0.202903 16.5056 0.530416 18.8124 2.12114C21.1191 3.71187 22.7965 6.05969 23.5536 8.75753C24.2269 11.1567 24.1347 13.6981 23.3028 16.0308C23.1307 16.5134 22.5784 16.7225 22.1105 16.5136V16.5136C21.6427 16.3048 21.4371 15.7571 21.6024 15.2722C22.2617 13.3374 22.3234 11.2407 21.7672 9.25888C21.1272 6.97817 19.7091 4.99336 17.759 3.64859C15.8089 2.30382 13.4497 1.68388 11.0904 1.89627C8.73115 2.10866 6.52058 3.13998 4.84201 4.81142C3.16343 6.48285 2.12269 8.689 1.90024 11.0474C1.6778 13.4057 2.28767 15.7676 3.62411 17.7234C4.96055 19.6792 6.93929 21.1057 9.21725 21.7555C11.1967 22.3201 13.2937 22.2673 15.2312 21.6162C15.7169 21.453 16.2636 21.661 16.4705 22.1297V22.1297Z" fill="#3D3D3D" stroke="#3D3D3D" stroke-width="3" mask="url(#path-1-inside-1)"/>
<rect x="18" y="14" width="2" height="10" rx="1" fill="#3D3D3D"/>
<rect x="24" y="18" width="2" height="10" rx="1" transform="rotate(90 24 18)" fill="#3D3D3D"/>
</svg>
