<svg width="24" height="24" viewBox="0 0 24 24" fill="none" xmlns="http://www.w3.org/2000/svg">
<mask id="path-1-inside-1" fill="white">
<path d="M17.0017 21.8782C17.2331 22.3353 17.0513 22.8971 16.5777 23.0926C14.3118 24.0277 11.806 24.2492 9.39857 23.7146C6.68833 23.1128 4.27062 21.5898 2.55739 19.4052C0.844155 17.2206 -0.0585977 14.5096 0.00294914 11.734C0.064496 8.95839 1.08653 6.29002 2.89492 4.18351C4.70331 2.077 7.18615 0.662695 9.92041 0.18157C12.6547 -0.299555 15.4712 0.182271 17.89 1.54495C20.3088 2.90763 22.1803 5.06685 23.1856 7.6547C24.0786 9.95338 24.2391 12.4639 23.6578 14.8452C23.5363 15.343 23.0085 15.6078 22.5217 15.4482C22.0348 15.2887 21.7739 14.7651 21.8883 14.2657C22.3401 12.2943 22.1936 10.225 21.4561 8.32656C20.6063 6.13884 19.0241 4.31347 16.9793 3.16149C14.9345 2.0095 12.5534 1.60218 10.2419 2.00891C7.93046 2.41565 5.83151 3.61128 4.30273 5.39208C2.77395 7.17288 1.90994 9.42868 1.85791 11.7751C1.80588 14.1215 2.56905 16.4134 4.01739 18.2602C5.46572 20.107 7.50961 21.3945 9.8008 21.9033C11.789 22.3448 13.8566 22.1763 15.7369 21.4312C16.2132 21.2425 16.7702 21.4211 17.0017 21.8782Z"/>
</mask>
<path d="M17.0017 21.8782C17.2331 22.3353 17.0513 22.8971 16.5777 23.0926C14.3118 24.0277 11.806 24.2492 9.39857 23.7146C6.68833 23.1128 4.27062 21.5898 2.55739 19.4052C0.844155 17.2206 -0.0585977 14.5096 0.00294914 11.734C0.064496 8.95839 1.08653 6.29002 2.89492 4.18351C4.70331 2.077 7.18615 0.662695 9.92041 0.18157C12.6547 -0.299555 15.4712 0.182271 17.89 1.54495C20.3088 2.90763 22.1803 5.06685 23.1856 7.6547C24.0786 9.95338 24.2391 12.4639 23.6578 14.8452C23.5363 15.343 23.0085 15.6078 22.5217 15.4482C22.0348 15.2887 21.7739 14.7651 21.8883 14.2657C22.3401 12.2943 22.1936 10.225 21.4561 8.32656C20.6063 6.13884 19.0241 4.31347 16.9793 3.16149C14.9345 2.0095 12.5534 1.60218 10.2419 2.00891C7.93046 2.41565 5.83151 3.61128 4.30273 5.39208C2.77395 7.17288 1.90994 9.42868 1.85791 11.7751C1.80588 14.1215 2.56905 16.4134 4.01739 18.2602C5.46572 20.107 7.50961 21.3945 9.8008 21.9033C11.789 22.3448 13.8566 22.1763 15.7369 21.4312C16.2132 21.2425 16.7702 21.4211 17.0017 21.8782Z" stroke="#3D3D3D" stroke-width="3" mask="url(#path-1-inside-1)"/>
<path d="M15.5 22.5C17 22 17.5 21.9 17.5 19.5C17.5 17.1 17.5 15.8333 17.5 15.5" stroke="#3D3D3D" stroke-width="1.9" stroke-linecap="round" stroke-linejoin="round"/>
<path d="M20.5 17.5L17.5 15.5L14.5 17.5" stroke="#3D3D3D" stroke-width="1.9" stroke-linecap="round" stroke-linejoin="round"/>
</svg>
