<svg width="24" height="24" viewBox="0 0 24 24" fill="none" xmlns="http://www.w3.org/2000/svg">
<path d="M12 0C18.6273 0 24 5.37245 24 12.0004C24 18.6276 18.6273 24 12 24C5.37267 24 0 18.6276 0 12.0004C0 5.37245 5.37267 0 12 0Z" fill="#00AED6"/>
<path fill-rule="evenodd" clip-rule="evenodd" d="M19.0003 11.6303C18.9089 10.1026 17.6082 8.93158 16.0803 8.99963H8.50027C8.22397 8.99963 7.99976 8.77591 7.99976 8.49978C7.99976 8.22365 8.22397 7.99993 8.50027 7.99993H16.1799C16.1354 6.96502 15.4288 6.07639 14.4301 5.80026C12.191 5.39975 9.89911 5.39975 7.66005 5.80026C6.38728 6.11237 5.4361 7.17153 5.26021 8.47005C4.90993 10.8238 4.90993 13.2159 5.26021 15.5697C5.5282 16.9441 6.61979 18.0079 7.99976 18.2403C10.7756 18.5899 13.5846 18.5899 16.3604 18.2403C17.5969 17.9892 18.5322 16.973 18.6802 15.7199C18.9338 14.3721 19.041 13.0008 19.0003 11.6303ZM16.5 13.3098V13.7502C16.5 14.0263 16.2766 14.25 16.0003 14.25C15.724 14.25 15.4998 14.0263 15.4998 13.7502V13.3098C15.3382 13.169 15.2469 12.964 15.2499 12.7497C15.2499 12.3359 15.5858 12.0003 16.0003 12.0003C16.414 12.0003 16.7499 12.3359 16.7499 12.7497C16.7476 12.9633 16.657 13.1659 16.5 13.3098Z" fill="white"/>
</svg>
