<svg width="151" height="56" viewBox="0 0 151 56" fill="none" xmlns="http://www.w3.org/2000/svg">
<g clip-path="url(#clip0)">
<path d="M144.814 34.1561V29.3594V19.7759H130.434H120.845V14.9791H144.814V5.39062H120.845H106.465V14.9791V19.7759V29.3594H120.845H130.434V34.1561H106.465V43.7446H130.434H144.814V34.1561Z" fill="white"/>
<path d="M101.673 5.39062H92.0849V43.7396H101.673V5.39062Z" fill="white"/>
<path d="M48.9442 5.39062V14.9791H77.7046V19.7759H58.5276H48.9442V29.3594V43.7446H58.5276V29.5053L72.9129 43.7446H87.2931L72.2888 29.3594H77.7046H87.2931V19.7759V14.9791V5.39062H77.7046H48.9442Z" fill="white"/>
<path d="M20.1786 29.3597H29.742V19.7964H20.1786V29.3597ZM22.5796 22.1721H27.3713V26.9639H22.5796V22.1721Z" fill="white"/>
<path d="M15.3869 5.39062H6.99637C6.67928 5.39303 6.37575 5.51951 6.15077 5.74296C6.03884 5.8545 5.95008 5.98708 5.88961 6.13307C5.82914 6.27906 5.79816 6.43557 5.79843 6.59359V42.5417C5.79816 42.6997 5.82914 42.8562 5.88961 43.0022C5.95008 43.1482 6.03884 43.2808 6.15077 43.3923C6.37626 43.6144 6.67989 43.7391 6.99637 43.7396H29.7672V34.1763H15.3869V5.39062Z" fill="white"/>
<path d="M42.9495 5.39062H20.1786V14.9791H34.5639V29.3594H44.1272V6.59359C44.1302 6.2769 44.0092 5.97161 43.79 5.74296C43.5654 5.52205 43.2645 5.39591 42.9495 5.39062Z" fill="white"/>
<path d="M44.1524 34.1562H34.5639V55.7291H44.1524V34.1562Z" fill="white"/>
<path d="M19.177 0H1.19793C0.88063 0.00132488 0.5767 0.127961 0.35233 0.35233C0.127961 0.5767 0.00132488 0.88063 0 1.19793L0 19.177H2.39587V3.57367C2.40243 3.25987 2.53137 2.96107 2.75518 2.74102C2.97899 2.52097 3.27994 2.39711 3.5938 2.39587H19.1971L19.177 0Z" fill="white"/>
<path d="M148.604 31.1562V46.7596C148.603 47.0769 148.476 47.3808 148.252 47.6052C148.027 47.8296 147.724 47.9562 147.406 47.9575H131.803V50.3333H149.782C149.941 50.3352 150.098 50.3058 150.246 50.2465C150.393 50.1873 150.527 50.0994 150.641 49.9881C150.754 49.8767 150.844 49.744 150.906 49.5976C150.967 49.4513 150.999 49.2941 151 49.1353V31.1562H148.604Z" fill="white"/>
</g>
<defs>
<clipPath id="clip0">
<rect width="151" height="55.724" fill="white"/>
</clipPath>
</defs>
</svg>
