<svg width="32" height="32" viewBox="0 0 32 32" fill="none" xmlns="http://www.w3.org/2000/svg">
<path fill-rule="evenodd" clip-rule="evenodd" d="M12.0801 19.8713L14.6845 17.5553H11.7996V14.3791H13.1619L10.6243 12.1028L8.1936 14.3526H9.43568V18.1773C9.44904 19.3551 9.64937 19.8977 10.6778 19.911L12.0801 19.8977V19.8713Z" fill="#3C893F"/>
<path fill-rule="evenodd" clip-rule="evenodd" d="M19.9332 12.1159L17.3289 14.4319H20.2137V17.6081H18.8514L21.389 19.8844L23.8197 17.6345H22.5776V13.8099C22.5643 12.632 22.3639 12.0894 21.3356 12.0762L19.9332 12.0894V12.1159Z" fill="#3C893F"/>
<path fill-rule="evenodd" clip-rule="evenodd" d="M19.9199 19.8844L17.5826 17.3037V20.1623H14.3773V18.8124L12.0801 21.3269L14.3505 23.7355V22.5048H18.2103C19.399 22.4915 19.9466 22.293 19.9599 21.274L19.9466 19.8844H19.9199Z" fill="#3C893F"/>
<path fill-rule="evenodd" clip-rule="evenodd" d="M12.0934 12.1026L14.4307 14.6833V11.8247H17.636V13.1746L19.9332 10.6601L17.6627 8.25146V9.48225H13.8029C12.6143 9.49548 12.0667 9.69399 12.0533 10.713L12.0667 12.1026H12.0934Z" fill="#3C893F"/>
<path fill-rule="evenodd" clip-rule="evenodd" d="M1.71608 8.89971C1.38219 9.41584 1.11508 9.41584 0.861321 11.626C0.607563 13.8361 2.02326 16.1653 2.02326 16.1653C2.02326 16.1653 1.87635 15.0933 2.55749 14.2199C3.23863 13.3332 4.58755 12.0362 5.22862 11.1495C5.8697 10.2628 6.02996 9.13792 6.02996 9.13792C5.44231 9.40261 4.80124 9.54818 4.10675 9.54818C3.22527 9.54818 2.41058 9.30997 1.71608 8.88647V8.89971Z" fill="#1C4596"/>
<path fill-rule="evenodd" clip-rule="evenodd" d="M7.39228 5.00903C7.39228 6.80888 5.92315 8.26464 4.10678 8.26464C2.29041 8.26464 0.821289 6.80888 0.821289 5.00903C0.821289 3.20918 2.29041 1.75342 4.10678 1.75342C5.92315 1.75342 7.39228 3.20918 7.39228 5.00903Z" fill="#1C4596"/>
<path fill-rule="evenodd" clip-rule="evenodd" d="M7.84637 2.26959C7.84637 2.26959 10.3706 0.456502 12.9082 0.112413C15.4457 -0.244911 19.0918 0.363862 19.0918 0.363862C19.0918 0.363862 17.3289 0.48297 16.2471 1.11821C15.1519 1.75345 14.2838 2.71955 12.9883 3.88416C11.6928 5.03554 10.7846 5.78988 9.86308 6.22661C9.27543 6.50453 8.76792 6.5707 8.48745 6.58394C8.66107 6.09427 8.76792 5.5649 8.76792 5.0223C8.76792 3.99003 8.43402 3.05041 7.85973 2.28282L7.84637 2.26959Z" fill="#1C4596"/>
<path fill-rule="evenodd" clip-rule="evenodd" d="M8.98157 30.313C9.50244 30.6438 9.50244 30.9085 11.7462 31.16C13.9766 31.4114 16.3272 30.0086 16.3272 30.0086C16.3272 30.0086 15.2454 30.1542 14.3639 29.4792C13.4691 28.8043 12.1602 27.4676 11.2654 26.8324C10.3706 26.1971 9.23533 26.0383 9.23533 26.0383C9.50244 26.6206 9.64935 27.2559 9.64935 27.9441C9.64935 28.8175 9.40895 29.6248 8.98157 30.313Z" fill="#3C893F"/>
<path fill-rule="evenodd" clip-rule="evenodd" d="M5.05503 24.6885C6.8714 24.6885 8.34052 26.1442 8.34052 27.9441C8.34052 29.7439 6.8714 31.1997 5.05503 31.1997C3.23865 31.1997 1.76953 29.7439 1.76953 27.9441C1.76953 26.1442 3.23865 24.6885 5.05503 24.6885Z" fill="#3C893F"/>
<path fill-rule="evenodd" clip-rule="evenodd" d="M2.29042 24.2384C2.29042 24.2384 0.460692 21.7371 0.113444 19.2227C-0.247159 16.7082 0.367202 13.0952 0.367202 13.0952C0.367202 13.0952 0.487403 14.8421 1.12847 15.9141C1.76955 16.9993 2.74451 17.8595 3.91981 19.1432C5.08175 20.427 5.84303 21.3269 6.28376 22.24C6.56423 22.8224 6.63101 23.3253 6.64437 23.6032C6.15021 23.4311 5.61598 23.3253 5.0684 23.3253C4.02665 23.3253 3.0784 23.6561 2.30377 24.2252L2.29042 24.2384Z" fill="#3C893F"/>
<path fill-rule="evenodd" clip-rule="evenodd" d="M30.2973 23.1C30.6312 22.5839 30.8983 22.5839 31.152 20.3738C31.4058 18.1637 29.9901 15.8345 29.9901 15.8345C29.9901 15.8345 30.137 16.9064 29.4559 17.7799C28.7747 18.6666 27.4258 19.9635 26.7847 20.8502C26.1437 21.7369 25.9834 22.8618 25.9834 22.8618C26.571 22.5971 27.2121 22.4516 27.9066 22.4516C28.7881 22.4516 29.6028 22.6898 30.2973 23.1133V23.1Z" fill="#1C4596"/>
<path fill-rule="evenodd" clip-rule="evenodd" d="M24.6211 26.978C24.6211 25.1782 26.0902 23.7224 27.9066 23.7224C29.723 23.7224 31.1921 25.1782 31.1921 26.978C31.1921 28.7779 29.723 30.2336 27.9066 30.2336C26.0902 30.2336 24.6211 28.7779 24.6211 26.978Z" fill="#1C4596"/>
<path fill-rule="evenodd" clip-rule="evenodd" d="M24.167 29.7304C24.167 29.7304 21.6428 31.5435 19.1052 31.8875C16.5676 32.2449 12.9215 31.6361 12.9215 31.6361C12.9215 31.6361 14.6845 31.517 15.7663 30.8817C16.8614 30.2465 17.7295 29.2804 19.025 28.1158C20.3205 26.9644 21.2287 26.2101 22.1503 25.7733C22.7379 25.4954 23.2454 25.4292 23.5259 25.416C23.3523 25.9057 23.2454 26.435 23.2454 26.9777C23.2454 28.0099 23.5793 28.9495 24.1536 29.7171L24.167 29.7304Z" fill="#1C4596"/>
<path fill-rule="evenodd" clip-rule="evenodd" d="M23.0184 1.68722C22.4975 1.35636 22.4975 1.09168 20.2538 0.840231C18.0234 0.588781 15.6728 1.99161 15.6728 1.99161C15.6728 1.99161 16.7546 1.84603 17.6361 2.52097C18.5309 3.19592 19.8398 4.53257 20.7346 5.16781C21.6294 5.80306 22.7646 5.96187 22.7646 5.96187C22.4975 5.37956 22.3506 4.74432 22.3506 4.05614C22.3506 3.18268 22.591 2.3754 23.0184 1.68722Z" fill="#3C893F"/>
<path fill-rule="evenodd" clip-rule="evenodd" d="M26.945 7.29858C25.1287 7.29858 23.6595 5.84282 23.6595 4.04297C23.6595 2.24312 25.1287 0.787354 26.945 0.787354C28.7614 0.787354 30.2305 2.24312 30.2305 4.04297C30.2305 5.84282 28.7614 7.29858 26.945 7.29858Z" fill="#3C893F"/>
<path fill-rule="evenodd" clip-rule="evenodd" d="M29.7096 7.74854C29.7096 7.74854 31.5393 10.2498 31.8866 12.7643C32.2472 15.2788 31.6328 18.8917 31.6328 18.8917C31.6328 18.8917 31.5126 17.1448 30.8715 16.0728C30.2305 14.9876 29.2555 14.1274 28.0802 12.8437C26.9183 11.56 26.157 10.6601 25.7163 9.7469C25.4358 9.16459 25.369 8.6617 25.3557 8.38378C25.8498 8.55582 26.384 8.6617 26.9316 8.6617C27.9734 8.6617 28.9216 8.33084 29.6962 7.76177L29.7096 7.74854Z" fill="#3C893F"/>
</svg>
